<?xml version="1.0" standalone="no"?>
<!DOCTYPE svg PUBLIC "-//W3C//DTD SVG 20010904//EN"
 "http://www.w3.org/TR/2001/REC-SVG-20010904/DTD/svg10.dtd">
<svg version="1.0" xmlns="http://www.w3.org/2000/svg"
 width="984.000000pt" height="209.000000pt" viewBox="0 0 984.000000 209.000000"
 preserveAspectRatio="xMidYMid meet">

<g transform="translate(0.000000,209.000000) scale(0.100000,-0.100000)"
fill="#000000" stroke="none">
<path d="M5085 2064 c-365 -40 -694 -274 -849 -605 -146 -311 -115 -702 78
-992 160 -240 448 -420 731 -458 108 -14 303 -6 395 16 178 43 413 168 446
239 24 48 12 97 -32 135 -53 47 -91 43 -184 -20 -101 -67 -162 -95 -267 -121
-161 -39 -365 -26 -518 34 -165 65 -329 216 -418 385 -58 110 -79 205 -80 353
0 155 17 232 80 358 78 156 236 306 398 378 197 86 474 86 671 -1 45 -20 76
-39 193 -117 55 -38 140 -8 167 58 13 31 13 42 2 78 -11 34 -25 49 -83 89
-124 86 -257 145 -388 173 -72 15 -271 25 -342 18z"/>
<path d="M3045 2046 c-206 -32 -348 -123 -412 -262 -13 -30 -34 -98 -46 -152
-21 -94 -22 -118 -22 -857 l0 -760 150 0 150 0 5 800 5 800 23 42 c25 48 76
85 142 105 61 18 428 18 488 0 55 -17 110 -66 134 -120 45 -100 47 -151 48
-899 1 -390 5 -714 9 -721 6 -9 46 -12 152 -10 l144 3 0 730 c0 798 -2 838
-57 994 -36 101 -61 144 -118 195 -62 56 -154 94 -268 111 -118 18 -413 18
-527 1z"/>
<path d="M7490 2044 c-174 -75 -209 -349 -60 -476 136 -117 365 -54 415 114
19 66 19 140 -1 209 -20 66 -88 138 -150 157 -56 16 -161 15 -204 -4z m197
-68 c73 -35 98 -83 97 -191 0 -90 -14 -127 -64 -169 -46 -38 -103 -51 -167
-36 -92 20 -144 94 -145 204 0 105 40 173 119 202 56 20 102 17 160 -10z"/>
<path d="M8074 2037 c-94 -45 -141 -144 -132 -276 6 -81 33 -146 82 -193 42
-41 92 -58 170 -58 97 0 174 48 211 131 20 44 20 47 -21 55 -27 5 -31 2 -51
-40 -28 -57 -69 -80 -143 -80 -100 0 -154 49 -172 157 -13 78 3 164 38 206 33
40 102 65 159 59 57 -7 91 -29 112 -74 15 -31 20 -34 48 -28 16 3 32 8 34 10
13 12 -43 96 -80 121 -36 24 -54 28 -123 31 -69 2 -89 -1 -132 -21z"/>
<path d="M424 2036 c-44 -20 -103 -93 -119 -151 -8 -27 -26 -129 -40 -225 -15
-96 -46 -308 -70 -470 -24 -162 -62 -419 -85 -570 -38 -258 -73 -493 -85 -567
l-6 -33 149 0 149 0 27 187 c14 104 53 379 86 613 64 459 97 688 107 735 6 32
11 17 162 -455 40 -124 85 -263 101 -310 16 -47 70 -211 120 -365 95 -295 131
-373 183 -405 44 -27 131 -27 175 0 75 46 82 63 407 1075 146 455 157 487 162
482 2 -3 19 -114 38 -248 59 -419 94 -666 130 -909 19 -129 40 -272 46 -317
l11 -83 144 0 c130 0 144 2 144 18 0 16 -20 157 -116 797 -24 165 -62 424 -84
575 -67 459 -77 503 -126 567 -54 71 -179 97 -263 53 -84 -42 -106 -88 -221
-450 -39 -124 -84 -263 -100 -310 -27 -81 -47 -143 -190 -587 -34 -106 -64
-193 -65 -193 -2 0 -43 120 -90 268 -48 147 -102 312 -120 367 -19 55 -84 254
-145 441 -121 375 -142 420 -220 461 -50 27 -145 31 -196 9z"/>
<path d="M6710 1785 l0 -265 35 0 35 0 2 225 3 226 76 -223 76 -223 33 0 33 0
77 223 c43 123 81 226 84 229 3 4 6 -98 6 -225 l0 -232 30 0 30 0 0 266 0 265
-52 -3 -51 -3 -44 -130 c-24 -71 -58 -172 -74 -224 -17 -51 -33 -91 -35 -88
-3 3 -38 103 -78 224 l-73 218 -57 3 -56 3 0 -266z"/>
<path d="M5070 1743 c-210 -76 -336 -172 -435 -333 -41 -67 -91 -197 -110
-287 l-6 -31 68 -4 c37 -2 69 -3 71 -2 2 1 12 39 23 84 48 205 183 358 363
416 l71 22 -4 64 c-4 81 -6 84 -41 71z"/>
<path d="M5240 1701 c0 -27 -3 -56 -6 -64 -4 -12 5 -17 43 -22 185 -23 324
-104 429 -251 52 -73 80 -144 96 -249 20 -127 -16 -292 -83 -384 -16 -23 -27
-47 -23 -54 4 -7 4 -9 -1 -5 -4 4 -38 -20 -74 -55 -37 -34 -96 -77 -131 -95
-63 -31 -176 -61 -232 -62 -28 0 -28 -1 -28 -66 l0 -67 78 6 c235 18 451 168
563 389 102 202 88 501 -32 689 -76 119 -196 226 -313 279 -66 30 -191 60
-251 60 l-35 0 0 -49z"/>
<path d="M7918 1299 c-48 -14 -113 -71 -140 -123 -27 -52 -36 -177 -18 -242
17 -58 86 -136 142 -159 60 -24 161 -23 218 2 97 43 153 137 153 252 -1 120
-51 208 -146 257 -38 21 -156 27 -209 13z m186 -77 c16 -10 43 -34 60 -55 30
-37 31 -43 31 -131 0 -85 -2 -96 -28 -135 -70 -106 -243 -107 -312 -2 -46 68
-44 219 3 277 58 69 168 90 246 46z"/>
<path d="M6710 1035 l0 -265 25 0 c14 0 28 -1 33 -2 4 -2 9 103 12 232 l5 235
140 0 140 0 3 -231 2 -232 35 -4 35 -4 0 268 0 268 -215 0 -215 0 0 -265z"/>
<path d="M7270 1036 l0 -264 30 -4 c17 -3 32 -2 35 0 3 3 5 52 5 109 l0 103
108 0 c157 1 215 33 232 128 14 84 -28 162 -99 182 -20 5 -98 10 -173 10
l-138 0 0 -264z m272 194 c45 -13 68 -43 68 -88 0 -77 -44 -102 -180 -102
l-90 0 0 93 c0 52 3 97 7 100 10 11 154 8 195 -3z"/>
<path d="M8370 1037 c0 -145 2 -266 5 -269 3 -2 19 -3 35 0 l31 4 -3 224 c-2
123 0 220 4 216 4 -4 39 -101 79 -217 39 -116 75 -215 80 -221 5 -6 21 -9 37
-6 27 4 31 11 103 227 40 122 77 221 82 218 4 -2 7 -103 7 -224 l0 -219 30 0
30 0 0 265 0 265 -50 0 c-27 0 -50 -1 -50 -3 0 -12 -149 -433 -154 -437 -4 -3
-40 94 -80 215 l-73 220 -57 3 -56 3 0 -264z"/>
<path d="M4551 973 c-23 -5 -23 -7 -18 -64 17 -156 107 -302 265 -427 55 -43
78 -53 69 -28 -4 9 3 16 19 19 l25 4 -21 -19 c-11 -10 -20 -21 -20 -23 0 -15
223 -105 234 -94 4 4 14 59 19 103 3 26 -57 43 -81 24 -15 -11 -15 -11 -4 3
10 14 6 18 -30 33 -24 9 -67 34 -96 56 -30 23 -58 37 -65 34 -7 -4 -9 -4 -5 0
4 4 -20 39 -52 77 -32 38 -70 95 -84 125 -24 50 -49 137 -49 172 0 12 -54 15
-106 5z m9 -58 c0 -5 -5 -3 -10 5 -5 8 -10 20 -10 25 0 6 5 3 10 -5 5 -8 10
-19 10 -25z m22 -79 c3 -14 2 -30 -2 -36 -4 -6 -7 5 -8 25 -2 40 4 46 10 11z
m73 3 c-5 -16 -4 -19 5 -14 9 6 11 4 5 -4 -10 -18 -27 2 -19 22 9 25 17 21 9
-4z m-30 -39 c3 -6 -1 -7 -9 -4 -10 4 -16 1 -16 -7 0 -7 -3 -10 -6 -6 -7 7 4
27 16 27 5 0 12 -4 15 -10z m60 0 c-3 -5 -12 -10 -18 -10 -7 0 -6 4 3 10 19
12 23 12 15 0z m23 -36 c8 -15 8 -21 -1 -21 -7 0 -13 11 -13 24 -2 27 -1 27
14 -3z m3 -131 c13 -16 12 -17 -3 -4 -17 13 -22 21 -14 21 2 0 10 -8 17 -17z
m77 -77 c-2 -1 -10 -7 -19 -14 -13 -10 -19 -9 -29 3 -8 9 -9 15 -4 14 23 -4
35 2 28 14 -5 8 -2 7 9 -2 10 -8 16 -14 15 -15z m132 -21 c0 -2 -7 -1 -17 2
-10 4 -14 2 -9 -5 3 -6 2 -13 -4 -17 -6 -4 -9 4 -8 19 2 20 5 23 20 15 10 -5
18 -12 18 -14z m-126 -3 c3 -5 -1 -9 -9 -9 -8 0 -12 4 -9 9 3 4 7 8 9 8 2 0 6
-4 9 -8z m211 -42 c3 -5 -4 -6 -15 -3 -11 3 -22 9 -25 13 -3 5 4 6 15 3 11 -3
22 -9 25 -13z m-75 -61 c17 -13 18 -17 5 -10 -33 17 -51 31 -40 31 6 0 21 -10
35 -21z m130 6 c0 -9 -9 -15 -21 -15 -18 0 -19 2 -9 15 7 8 16 15 21 15 5 0 9
-7 9 -15z m30 -5 c0 -5 -2 -10 -4 -10 -3 0 -8 5 -11 10 -3 6 -1 10 4 10 6 0
11 -4 11 -10z"/>
<path d="M6858 548 c-54 -14 -123 -79 -145 -136 -27 -70 -24 -201 6 -268 42
-96 109 -137 226 -137 87 0 142 25 185 85 28 39 47 84 39 92 -2 2 -18 7 -34
10 -28 6 -32 4 -44 -29 -7 -19 -29 -47 -48 -62 -31 -24 -46 -28 -104 -28 -80
0 -110 18 -149 86 -20 36 -25 58 -25 119 0 139 63 214 180 214 62 0 112 -26
134 -71 16 -33 42 -42 70 -24 34 21 -50 127 -118 150 -40 13 -121 13 -173 -1z"/>
<path d="M9528 548 c-47 -12 -113 -69 -141 -122 -18 -34 -22 -57 -22 -141 0
-85 3 -107 23 -145 51 -97 113 -133 228 -133 107 0 175 45 214 141 15 38 15
38 -25 46 -27 5 -32 2 -48 -34 -24 -52 -68 -82 -127 -88 -148 -14 -233 119
-189 295 36 139 240 178 305 58 17 -32 22 -36 48 -31 38 8 38 8 26 42 -37 98
-163 146 -292 112z"/>
<path d="M7270 285 c0 -205 3 -265 13 -266 6 0 99 -1 204 -2 l193 -2 0 33 0
32 -165 0 -165 0 0 90 0 90 151 0 150 0 -3 33 -3 32 -148 0 -147 0 0 83 0 82
160 0 160 0 0 30 0 30 -200 0 -200 0 0 -265z"/>
<path d="M7792 284 l3 -268 33 -1 32 -1 0 108 0 108 108 0 c92 0 114 3 152 23
64 32 85 66 85 137 0 64 -16 95 -69 134 -24 19 -44 21 -187 24 l-159 4 2 -268z
m270 196 c47 -13 68 -43 68 -95 0 -32 -6 -47 -26 -66 -23 -21 -36 -24 -135
-27 l-109 -4 0 94 c0 52 3 98 7 101 10 11 154 8 195 -3z"/>
<path d="M8300 283 l0 -268 146 2 c165 2 202 13 241 72 44 65 24 164 -38 197
l-31 16 30 31 c57 60 48 140 -19 188 -32 22 -45 24 -181 27 l-148 4 0 -269z
m284 184 c29 -19 40 -49 32 -83 -11 -41 -42 -53 -146 -55 l-95 -2 -3 68 c-4
101 -7 99 98 93 58 -4 98 -11 114 -21z m25 -233 c39 -33 42 -80 7 -121 -23
-27 -28 -28 -135 -31 l-111 -4 0 91 0 91 104 0 c98 0 106 -2 135 -26z"/>
<path d="M8825 537 c-3 -7 -4 -127 -3 -266 l3 -255 34 0 c34 -1 38 4 180 209
l146 210 5 -210 5 -210 28 0 27 -1 0 268 0 268 -35 0 c-32 0 -38 -6 -110 -112
-111 -164 -191 -278 -204 -291 -8 -8 -11 44 -11 196 l0 207 -30 0 c-17 0 -33
-6 -35 -13z"/>
</g>
</svg>
